<svg id="レイヤー_1" data-name="レイヤー 1" xmlns="http://www.w3.org/2000/svg" viewBox="0 0 600 400"><defs><style>.cls-1{fill:#4d4d4d;stroke:#fff;stroke-width:0.25px;}.cls-1,.cls-2{stroke-miterlimit:10;}.cls-2{fill:none;stroke:#4d4d4d;}</style></defs><title>アートボード 1</title><path class="cls-1" d="M165.14,172.1a2.45,2.45,0,0,0,.55-.46l-.09-.83.46-.46.37-.74.09-.55.65-.28.37-1.48.09-.65.46-.92.37-1.29.28-.92v-1l.09-.19.18-1.48.09-.18v-.09l-.65.46-.28.28a.52.52,0,0,1-.55-.09,2.45,2.45,0,0,1,.55-1.29l.83-.55.46-.28.09-.09c.09,0,.09-.09.18-.09a2.47,2.47,0,0,1,.55-.46l.37-.37.28-.37.18-.18v-.37l.09-.09.18-.09.37-.28.37-.18v.18H173l.65.37.09.09.18.09-.09.18.74-.28c.46-.09.74.18.65.74,0,.09-.09.18-.09.28l.18.18-.28,1.11-.28,1L174,161l-.92,1.85-.09.55-.74.92-2.31,4,1.38-1,.28-.46.92-.74,1.57-.92,1.38-1.2.55-.46,1-.55,1.29-.55.74-.37.74-.46,1.38-.55,3.14-1.66.28-.28.09-.37.09.09.37.18,2.21-1.11.28-.18h.18l3.78-1.66V156h.09l4.52-1.85.46-.28.74-.18L202,152a13.87,13.87,0,0,1,3.69-.46v-.18l.55-.09v-.09h.09v.18H207l.09.09.09-.09.65.09.65.28.37.09.09.18h-.09l.65.18h.09l.65.65V153h.37l.46.37.65.74.09.65-.46.55c.55,2.22-.46,4.71-2.22,7.2l-.65,2.68-.46.37-2.58,1.29v.09l-1,1-6.46,5.63-2.49,1.2-1.94.65-.28.18H193l-1.57.83-.28.18-1,.55-.83.18a37.68,37.68,0,0,1-3.88,1.57l-1,.55-.65.09-.74.28-1,.09c-1.11.37-2.21.55-3.32.83l-.28.09H178l-.83.18H177l-.65.37-.92.09h-.18l-.55.09-.65-.18-.65.18h-.74l-.37-.09-.46-.18a15.73,15.73,0,0,1-5.63-1.29c-.18,0-.28-.09-.46-.18h-.09l-.28-.09-.55-.37-.28-.09h-.46l-.55-.18-.09-.09-.92,1.48v.09h-.18l-.37.65-.09.28-2.12,3-.28.83-.46.92-.37.37L158,187l-1.75,2.77-2.12,3.32-.09.18-.18.28-.18.65L153,195l-.37.65-.46.83-.46.46-.55.74-.74,1.11-.65,1.29-.46.46-.37.55-.09.28-.65.83L146.4,205l-.55.92-.09.19-.55.83-.37.74-1.2,1.75-.46.65-1.11,1.85-.92,1.29-.65.83-1.11,1.66-.18.09a19.81,19.81,0,0,1-1.2,1.75l-.18.37-.74,1-.83,1.11-1.38,2,.18.28h-.37l-.37.46-.46.83V224l-4.71,6.28-.55.46-1.94,2.86v.28l-.37.28c-1.38,2.12-2.77,4.43-4.25,7.11l-3,6-.55,2.31-1.2,3-.65.65v.55l.09.46-.09.18v.46l-.09.28-.18,1.11-.83,1.11-.55,1-.28.09-.09.09-.28.09-.65-.28-.28-.37-.18-.28-.18-.37v-.18l-.09-.46-.09-.55-.28-.09v-.83l-.18-.65.09-.28.09-1.2.09-.09-.09-.28.18-.92-.28-.09.09-.09.09.09.28-1h.28l.18-.28.18-.46.28-.18.09-.09.74-2.77v-.46l.37-.65.83-3.14,1.57-2.86,2.58-6.28.37-1,.55-1.29,1-2.86,1-1.38,1.29-2.58.37-1.57,1.38-1.94.92-2.31.37-.83.83-1.2,1.11-1.48.65-.92.55-1,1-1.29,2.31-3.6.18-1,.18-.37.74-.28c.83-1.2,1.57-2.4,2.4-3.51l.28-.83.55-.83.74-.65.55-1,.18-.46.55-.92.28-.55.65-.55.74-.74,1.94-2.49.65-1.29.46-.37.74-.28.37-.37.28-.55.92-.92,1.29-1.57.28-.18,2.58-3v-.09l.18-.09a4.25,4.25,0,0,1,.65-.65v-.09l.09-.09.28-.65.46-.37.18-.65.46-.55.28-.28.83-.46.28-.37.55-.28.28-.09,1-.92.09-.28.46-.55.55-.65.65-.37.74-.74.09-.55.28-.18h.37a1.12,1.12,0,0,0,.46-.46l.18-.37.74-.55.92-1,1.38-1.2.46-.46Zm-7.94,13.57.37-.55.09-.37.55-.65.37-.46.37-.83.18-.83.55-.18.09-.46.46-.65.18-.46h.37l1.38-2.22-.46-.37c-.55.65-1.2,1.2-1.85,1.85l-.74.92-1,.83-1.38,1.38-.46.74-1.11,1.11-.92.74-.55.55-1.2,1.29-.37.92-.92.55c-.55.55-1,1.2-1.57,1.85l-.37.74-.55.37-.55.65-1.38,1.94-1.57,2.22-.18.28-.83.65-.37.46-.18.37-.74.74-.55.92-.83.83c-.55.74-1.11,1.38-1.57,2.12l-.46.55a4.1,4.1,0,0,1-.74,1l-.55.83-.18.46-.18.37-.46.37a1.94,1.94,0,0,1-.37.55l-.83,1.66-.92.92-1.2,1.85-.28.74-.46.55-.55,1.38-1.29,1.75-1.57,2.58-.65.92-.55,1-.37.74-.83,1.48-.28.46a15.78,15.78,0,0,0-.92,1.75l-.09.18-.55,1.38L124.25,229l-.74,1.38-.37.46-3,6.55-.74,2.12v.37l-.28.37-1.94,5.17.09.46a11.11,11.11,0,0,0,1.66-2.12c1.94-3.23,4-6.55,6.09-9.78l-.28-.09v-.65l1.2-.65c.83-1.29,1.66-2.58,2.58-3.88v-.09h.09l3.6-5.54.09-.09c.83-1.2,1.66-2.31,2.4-3.51l2.86-4.06.18-.65,1.11-1.66v-.37l.92-.74.28-.92,1.2-1.38,3.14-4.71.83-1.2v-.09l.18-.18.65-1.29,1.2-1.11.92-1.48.65-.83,1.11-1.75.09-.28.18-.18,2.22-3.42.18-.37.37-.65.46-1.29.28-.28.92-1.48.18-.18.28-.37.65-1.11.37-.65Zm5.91-9.14-.18.09.09.09A.29.29,0,0,0,163.11,176.53Zm29.81-1.94,2.31-1.29,2.68-2.12.37.09.37-.46h.28l.83-.55.18-.09,1.11-1v-.28l.46-.09.65-.65.28-.55v-.37l1-.74,1.85-1.66,1.75-3.32.37-.18v-.55l.28-.18.28-.92.55-1.57-.28-.37.28-.46.18-.65-.18-.74-.18-.28-.09-.74-.46-.55h-.37l-.18-.09L207,154l-.46-.28-.09-.09-1.29-.55h-.37l-.55.09-.28.18-.37.37-.83.18-.28-.18-.37-.18-3.14.65-.28.18-.18-.09-2.86,1.11L195,156l-.65.37h-.65l-1.11.28a48.27,48.27,0,0,0-4.89,2.4l-2.4,1.66-.74.28-.55.37-2.31,1.38-1,.55-1.11.37L177.42,165h-.09l-.28.37-.46.28-.55.28a19.33,19.33,0,0,0-2.77,2L171,169.52l-.55.55-1.29,1.2-.74.46-.37.46-.46.09c-.09.09-.09.18-.18.18l-.18.28-.28.46v.18l-.65.74-.55,1-.09.28-.37.55h-.09l-.46.74-.46.83-.18.28a2.45,2.45,0,0,0,.55.46l.74.37.83.37.65.18h.37l.92.28,1.2.28.55.28a25.68,25.68,0,0,0,7-.18l1.57-.46.74-.09H180a46.76,46.76,0,0,0,6.74-2L187,177l1.2-.28,2.68-1.2.46-.46.83-.28.46-.37.28.09Z"/><path class="cls-1" d="M244.62,175.52v.65l-.37.55-.09.09-.18.65.09.18-.28.46a4.47,4.47,0,0,0-.09,1.11l.09.55.28.37.37.46.46.28.46.18a3.92,3.92,0,0,0,1-.18l.74-.28.18-.18h.28l3.32-1.75.37-.09.46-.18,3.32-2.22c.09,0,.18-.09.28-.09l1.85-1.29.28-.37h.37l.55-.46,1.11-.55,1.38-1,.28-.28.92-.55.09-.09,1.48-1.29a.34.34,0,0,1,.28-.09l.18-.18.37-.18.37.46v.37l-.28.18-.83.46-1.29.83-.37.37-1.11.83a34.68,34.68,0,0,1-3.32,2.58l-.83.74h-.28l-.46.37-.28.37-.18.09-.28.46-.55.37-.37.18-.55.46-.28.28-.92.55-.37.37-.55.19-.74.18-.18.18-.92.46-1.48,1.11-.28.18-.55.46-.28.19h-.18l-.28.18-.74.37-.65.18-.92.09a5.34,5.34,0,0,1-1.2.37,1.8,1.8,0,0,1-.74-.09l-.55.09-.46-.37-.18-.28a.09.09,0,0,0-.09-.09l-.55-.74v.09l-.37-.55.09-1.75.09-1.66.09-.65-.09-.74.09-.18.55-.28.18-.37.37-.46.09-.37.55-.65.18-.37.18-.28.18-1.11.65-1.2c.37-1.38,1.11-3,1.57-4.34l.37-1.48a5.17,5.17,0,0,0,1-3.23l.09-.18.09-.65-.46-.46a6.6,6.6,0,0,0-2.49.74l-1.38.74-.65.18-1,.55-.74.55-.18.18-.74.37-.65.55-1.75.83-.46.18a5.83,5.83,0,0,0-1.11.65l-.28.28-4.89,2.68-.46.65H229l-.28.46-.37.37-.65.74-.92.18-1.48,1.38-3,2.49-2.4,2-2.21,1.57-.46.28-.65.37-.55.55v.28l-.55-.18-1.48.74-1,.65-.92.19-1.66.09-.37.37h-.65l-.46-.46-.18-.83.18-1.2.46-1.38.18-.65.74-1.29.46-.83.55-1.38.09-.18.28-.46.28-.74.09-.92.28-1.11.83-1.2.37-1.38.28-.65.46-.74.65-.92.37-.55.37-.65,1.48-1.85.74-1.48.09-.37.09-.09.09-.28.28-.09,1.11-1.48.18-.28.18-.37h.09l1.29-2,.28-.55.46-.55.65-.92.37-.92.37-.55,1-1c.46-.74.92-1.48,1.48-2.21l1.57-2.77.65-.46c1.66-2.4,3.42-4.8,5.17-7.2l.28-.37.18-.37.37-.83.74-.65.55-.92.37-.65.09-.65.28-.18.83-.74.46-.65.37-.65.74-1.66.46-.83.55-.74.65-.74.83-1.66.09-.37.18-.46.28-.28v-.28l.46-.83.09-.09h.09l.28-.46.28-.37L243,125l.09-.18.65-.92.65-.83.37-.55.18-.09-.09.18.09-.09v-.09l.28-.65.09-.37.65-.55.28-.55.28-.37.18-.28,1.11-1.38.46-.83.37-.83.18-.37.18-.55.28-.37-.09-.55.09-.28.74-.18,1.11-.92.46-.74,1.29-1.11.55-.74.37-.55v-.37l.37-.28.09.55.74-.83.74-.37.74.74.28,1.2-1.38,3.42-2.21,3-.83.92-2,1.94-1,.74-3.88,5.54.09.09-.46.74-.65,1.11-.46.83-.55.55-.83.74-3.6,4.89v.37l-.83,1.29-.37.65-.46.37-.55.74-.83,1.29-2.21,2.58-.09.65-1.38,1.38-.83,1.11-.18.55-1.29,1.75-.92,1.57-.74.65L224,156.6c-.83,1.29-1.66,2.58-2.58,3.88l-.09.37-.18.18-.28.37c-.92,1.38-1.85,2.77-2.68,4.25l-.09.18-.18.09-.83,1.48v.74l-.92,1.85-.55,1.66-1.11,2.49-.65,1.66-.18.92L213,178l-.18,1.29.37.55.37.18h.46l1.2-.65.55-.55.18-.09.28-.37.65-.28.37-.46.55-.46.37-.37,1-.55.37-.18.74-.55,2.86-1.75.74-.65.37-.28.55-.55.37-.18,1.2-.65,3-2.22.18-.28.74-.74,1.48-.74,1.11-.74.28-.09c1-.74,2-1.38,3-2l1.2-1.2.74-.46.28-.37.46-.09.28-.28.74-.55.83-.18,2.12-.55h.37a6.46,6.46,0,0,1,4.89.18c.18.09.37.18.37.37l.46.28.74.46.19.55-.09.74-.55,1.2-.09.09a42.24,42.24,0,0,0-1.85,4.25,20.54,20.54,0,0,1-1.29,3v.83l-.83,1.2Z"/><path class="cls-1" d="M286,167.58l-.37.74c-.09.18,0,.46-.09.74L285,170l-.65.92-.83.55-.92.92-.37.46-.46.46-.74.55-.18.09a40.92,40.92,0,0,1-5.45,3.88V178h-.28l-1,.65v.09l-.18.18h-.37c-.09.09-.09.09-.19.09v.28H273l-.74.55h-.09l-.46.46-.65.18-.37.46-.65.46-.37.09-1,.09-.37.18-.55.09h-.18c-1.48.55-2.77,1.11-4.06,1.48l-.37.28-.28.09-.37.46-.28.09-.65-.18h-.65l-1.75-.09-1.66-.18v-.09c-.09,0-.28.09-.37.09a6.08,6.08,0,0,1-1.38-.37c-.37-.28-2.31-1.2-2.4-1.85v-.83l-.28.09-.09-.55.65-1.66.65-1.57.37-.55,1.11-1.11.65-.46.18-.28,1.57-1.11,1.38-1.38.28-.46.37-.37,2-1.57.55-.46.46-.09.18-.18.74-.46.18-.28.09.18,2.22-1.66.46-.46.28-.09.83-.55.65-.74.83-.74,1.29-.46,1.2-1,.74-.37.83-.46c.92-.55,1.75-1.2,2.58-1.66L275,160.1a12.62,12.62,0,0,1-1.75.18l-.28.09-.09.09-.28-.09h-1.11a25.07,25.07,0,0,1-2.86.28h-.09l-2.12.09-1.11-.28-.55-.37-.28-.46.09-.65.74-1.11.74-.28.92-.18.92-.09.74.28L270,158a25.3,25.3,0,0,1,4.43.37l1-.18,1.48.09,1.75-.28.28.09,1.57-.18a3.74,3.74,0,0,0,.83-.46l.83-.55.74-.37.28-.09.46-.28.74-.09.83-.09a6.84,6.84,0,0,1,1.94-.09l.65-.09.28.28a2.77,2.77,0,0,1,1,.55l2.58-.28.09-.09,1.11-.28,1.38-.09,1.48-.46.55-.09.92-.09h1.85l.74-.09,1.11.09H301a5.27,5.27,0,0,0,1.2-.09c.46,0,1-.09,1.57-.09l.37-.09.18-.09h.18l.18.18h.55l.55-.18h.65l.83.09h.18l.65-.09.55.28H309l.37-.09.74.09.37.09a19.61,19.61,0,0,1,2.58.55l.37.28h.37l.28.37a15.12,15.12,0,0,1,1.57,1h.18l.28.28.46.18.28.55.37.55v.28l-.55.46-.28.65-.83,1.48-.37.55v.09c-.09.09-.18.18-.18.28l-.37.55-.55.18v-.74l.18-.28v-.19a6.92,6.92,0,0,1,.55-1.2l.18-.46.65-1.66c0-.09-.09-.18-.09-.37l-.28-.46-.92-.46-.74-.55-1.38-.37a29.64,29.64,0,0,0-6.09-.46h-1.38l-1.11.09a19,19,0,0,0-2.4.28c-4.06.28-6.92.65-9.6,1l-.18.09-.83.18-.46.28-1.48-.09c-1.48.18-3,.46-4.62.65l-.74.28h-.74l-1.66.18-.46.28a22.12,22.12,0,0,1,2.4.92H283l.28.28.18.09.37.28.74.46,1.11,1.2.28.65.46,1.11-.09,1.66A7.65,7.65,0,0,1,286,167.58Zm-2.21-.65v-.55l.37-.83.09-1.29v-.09l-.46-.92-.55-.55-.65-.46-.74-.46-.65-.28-.83-.28-.74-.46-.55-.18a.32.32,0,0,1-.18-.09c-1.2.74-2.31,1.66-4,2.77l-.83.65-.65.55-3.32,1.94-.92.65-.65.37-1.85,1.2-.09.09-.46.37-1.38.74-1.11.74-1,.65-.46.37-1.29.92-.09.09-1,1.2-.83,1.11-.46.65c-.09,0-.09.09-.18.09a8.1,8.1,0,0,0-1.48,2.31v.18l-.09.37-.18.46v.55l-.09.18-.09.28a2.57,2.57,0,0,0,.74,1.75h.18l.55.37c.18,0,.37.09.55.09,3,.18,3.69-.09,6.74-1.11a34.49,34.49,0,0,0,4-1.48l.09-.18h.28l1.11-.55.74-.74,1.57-.83.37-.09h.18l2.86-1.94.28-.28.18-.09c.74-.55,1.48-1.2,2.21-1.85l.28-.37.19-.28.55-.46.55-.65.28-.46.37-.09.18-.37.28-.28.18-.28H282A14.09,14.09,0,0,0,283.75,166.93Zm3.6-10.06c-.65-.37-1.85.09-2.77.46Z"/><path class="cls-1" d="M339.23,128.63h1.48l.46-.46,2.49-3.42.28-.28L345,123l.46-.46.65-.83.28-.18,1-1.38V120l.37-.37.18-.37.18-.28-.28.18h-.09v-.18l.18-.28.37-.09v.28l.37-.46.46-.46.46-.65.09-.28.37-.55,1.29-.83.74-.83.37-.28.28-.09.09-.18v-.09L353,114v.09l.55-1.2.65-.65,1.29-.09.74,1.29.09,1.29-1.29.83-.92.83-.65,1-.46.65-.09.55-3,2.77-.92.65-3.69,4-2,2.49,1.11-.09.37-.28H345l.28.28,2.31-.18v-.18h6.18l2.68-.28h2.77l.28.28h.74v.28l2.4.18.83-.18,1.29.28,1.57-.18H367l.83.09,1.11.28.65.09.74.09,2.31.65h.19l.74.19h1.2l.74.37,2,.28.37.09.55.46a5.2,5.2,0,0,1,1.11.37l.09-.09.09.09,2.4.92.18-.09.09.18h.09v.09l1.38.65h.18l.28.18a.48.48,0,0,0,.37.18l.46.09,1.11.55.28.46.83.65h.37l.37.37.09.19c.55.37,1,.83,1.48,1.2,0,.09.09.09.09.18l.28.09.65.92v.09l.18.18.55.18.18.19-.09.74.28.65.46,1.66.09.74c0,.09.09.18.18.28,0,.28,0,.46-.09.55l.09.09-.28.55-.46-.55-.09-.28a1.18,1.18,0,0,1-.09-.55l-.65-1.29-.65-1.66-.18-.37-.09-.09-.55-.83-.65-.74c-.09-.09-.09-.09-.09-.18l-1-.92-.37-.18-1.11-.83-.09-.09a2.31,2.31,0,0,1-.65-.37l-.28-.09-.18-.09-.74-.46-.74-.28-.55-.18-.18-.28-.09-.09h-.18l-.28-.18-1.48-.55-1.75-.19-.65-.18-1.11-.55-1.38-.37c-1.48-.37-3-.55-4.62-.83l-.18.09-1.57-.28-.74-.09h-.92l-.65.09-1.66-.28-.83-.09-.55.09-.28-.09-1.11-.18a18.55,18.55,0,0,0-2.22-.09l-.37.09L360,130c-.55,0-1-.09-1.48-.09-3,0-5.91,0-8.86.09l-.65.09-.65.28v.28H348l-1,.55h-.37v.28h-.28L345,132h-4.52c-.55.74-1.2,1.38-1.66,2l-.28.55-.55.46c-.55.65-1.11,1.29-1.57,1.94l-.09.28L335,138.78l-1.38,2.12-.83,1-1.57,1.75-.18.18-3,4-.65.83L325.57,151l-.28.55-.46.46-.55.83-.65,1.11-.37.46-.65.74-.74.74-.55.74-.09.09-.28.37-.28.65-1.38,1.94-.37,1.11-4.34,6-1.48,1.66-1.94,2-.46.46-.92,1-.55.92-.18.65-.92,1.29-.74,1.66-.65.92L305.45,179l-.55,1.94v.55l-.09.46-.74,1.2-.09,1.2-.37,1-.18.46.18.37.46.18.55-.09,1.66-.37.55-.18.18-.28,1.57-.37.83-.37.74-.28.55-.37.74-.09.83-.28.46-.28h.37l.28-.09,2.4-1.2,1.75-.74v-.09h.18l.28-.46h.28l.55-.18h.28l.28-.28h.28l2.68-1.2.92-.55.37-.09,4.34-2,.92-.55.65-.28,1.11-.46,1.48-.74h.09l.46-.55,1-.55,1.11-.37,1.29-.46,2.49-1.29v-.09h.09l.46-.28.37-.28,1.29-.74h.28v-.18l.55-.09.46-.37.28-.28.46.09.18.46.09.18L343,170l-.28.28-.74.09-.28.28-2.49,1.66-.74.37-1,.65-1.38.74-1,.46-.92.28-1.29.65-.65.37-.28.28-1,.55-1.2.74-1.57.65-.46.18-.83.74-.83.28-.92.37-.37.09-.55.46-.46.28-.46.09-.83.65-.28.18-.74.09-.65-.09-.55.28-1.75.92-.92.46-1.29.55H316l-1.11.55-1.11,1-.92.55-.46.09h-.09l.09.18-.09.28-.37.09h-.55l.18-.37-.37.09-.83.55-.28.28-2.58.92-3.42,1-1.2-.09-.28.09-.65-.18-.37-.09-.65-.28-.28-.55-.18-.83a8,8,0,0,1,.09-1.48,11.14,11.14,0,0,1,.83-2.77v-.18l.18-.65.28-.55.18-.18v-.46l.18-.28.46-.55.18-.28.55-.74.92-1.66.18-.28.18-.74.18-.55.28-.37.55-.65.55-.83.28-.65.37-.55.46-.37.09-.18.65-.55.83-.74.46-.65.09-.37.18-.46.65-.37,1.2-1.66.09-.28.28-.28a16.85,16.85,0,0,1,1.2-1.48l.55-.83.74-1,.55-.83.55-.74.28-.18.18-.28.37-.46.09-.09c.18-.28.46-.46.55-.74l.09-.18.28-.37.18-.19.28-.37v-.18l.37-.37v-.46l1.48-1.94.37-.18a.09.09,0,0,0,.09-.09l.09-.46,1-1.29.28-.18.37-.74.74-.65,3.42-4.89.46-.37,1.48-1.94.18-.18a10.27,10.27,0,0,0,1.11-1.48l.09-.09.18-.28h.09l1.48-1.94v-.46l1.48-1.66.28-.18.46-.55.09-.37,2.12-2.86.55-.28.65-.65V134l.37-.37v-.18l.28-.37.28-.09.18-.28v-.09l.18-.37.09-.28.83-1.11h-.18l-.55.28-1.85.18-1.11.18-2.77.18-2.86.37-.74.09-.83.09-2.4.37-.74.18-4.71,1.38-.83.46-.37.18-1.11.18-1.29-.09-1.66,1.2-.74.28-1.85.37-2.12-.46-.74-.83-.09-.92.18-.65h.09a.8.8,0,0,1,.28-.55h.18l-.09-.18V133l.18.37a25.34,25.34,0,0,1,5.63-1.75l1.48-.65,1.48-.09.55.18,3.78-.46.18-.09h.09l2.49-.28.09-.09h.18l1.66-.18.28.09h.55l.09-.09h.46l2.31-.46.18-.09.46-.18h.55l1.57-.18.28-.09.65.09a7.12,7.12,0,0,1,1.38-.18l.09-.09h1.2Z"/><path class="cls-1" d="M363.88,167.58l-.37.74c-.09.18,0,.46-.09.74l-.55.92-.65.92-.83.55-.92.92-.37.46-.46.46-.74.55-.18.09a40.93,40.93,0,0,1-5.45,3.88V178H353l-1,.65v.09l-.18.18h-.37c-.09.09-.09.09-.18.09v.28h-.37l-.74.55H350l-.46.46-.65.18-.37.46-.65.46-.37.09-1,.09-.37.18-.55.09h-.19c-1.48.55-2.77,1.11-4.06,1.48l-.37.28-.28.09-.37.46-.28.09-.65-.18h-.65L337,184l-1.66-.18v-.09c-.09,0-.28.09-.37.09a6.08,6.08,0,0,1-1.38-.37c-.37-.28-2.31-1.2-2.4-1.85v-.83l-.28.09-.09-.55.65-1.66.65-1.57.37-.55,1.11-1.11.65-.46.18-.28,1.57-1.11,1.38-1.38.28-.46.37-.37,2-1.57.55-.46.46-.09.18-.18.74-.46.18-.28.09.18,2.21-1.66.46-.46.28-.09.83-.55.65-.74.83-.74,1.29-.46,1.2-1,.74-.37.83-.46c.92-.55,1.75-1.2,2.58-1.66l-1.29-.18a12.59,12.59,0,0,1-1.75.18l-.28.09-.09.09-.28-.09h-1.11a25.12,25.12,0,0,1-2.86.28h-.09l-2.12.09-1.11-.28-.55-.37-.28-.46.09-.65.74-1.11.74-.28.92-.18.92-.09.74.28,1.38.37a25.3,25.3,0,0,1,4.43.37l1-.18,1.48.09,1.75-.28.28.09,1.57-.18a3.74,3.74,0,0,0,.83-.46l.83-.55.74-.37.28-.09.46-.28.74-.09.83-.09a6.85,6.85,0,0,1,1.94-.09l.65-.09.28.28a2.76,2.76,0,0,1,1,.55l2.58-.28.09-.09,1.11-.28,1.38-.09,1.48-.46.55-.09.92-.09H377l.74-.09,1.11.09h.09a5.26,5.26,0,0,0,1.2-.09c.46,0,1-.09,1.57-.09l.37-.09.18-.09h.18l.18.18h.55l.55-.18h.65l.83.09h.18l.65-.09.55.28h.28l.37-.09.74.09.37.09a19.64,19.64,0,0,1,2.58.55l.37.28h.37l.28.37a15.12,15.12,0,0,1,1.57,1h.18l.28.28.46.18.28.55.37.55v.28l-.55.46-.28.65-.83,1.48-.37.55v.09c-.09.09-.18.18-.18.28l-.37.55-.55.18v-.74l.18-.28v-.19a7,7,0,0,1,.55-1.2l.19-.46.65-1.66c0-.09-.09-.18-.09-.37l-.28-.46-.92-.46-.74-.55-1.38-.37a29.64,29.64,0,0,0-6.09-.46h-1.38l-1.11.09a19,19,0,0,0-2.4.28c-4.06.28-6.92.65-9.6,1l-.18.09-.83.18-.46.28-1.48-.09c-1.48.18-3,.46-4.62.65l-.74.28h-.74l-1.66.18-.46.28a22.1,22.1,0,0,1,2.4.92h.18l.28.28.18.09.37.28.74.46,1.11,1.2.28.65.46,1.11-.09,1.66A7.73,7.73,0,0,1,363.88,167.58Zm-2.22-.65v-.55l.37-.83.09-1.29v-.09l-.46-.92-.55-.55-.65-.46-.74-.46-.65-.28-.83-.28-.74-.46-.55-.18a.32.32,0,0,1-.18-.09c-1.2.74-2.31,1.66-4,2.77l-.83.65-.65.55L348,166.38l-.92.65-.65.37-1.85,1.2-.09.09-.46.37-1.38.74-1.11.74-1,.65-.46.37-1.29.92-.09.09-1,1.2-.83,1.11-.46.65c-.09,0-.09.09-.18.09a8.06,8.06,0,0,0-1.48,2.31v.18l-.09.37-.18.46v.55l-.09.18-.09.28a2.58,2.58,0,0,0,.74,1.75h.18l.55.37c.18,0,.37.09.55.09,3,.18,3.69-.09,6.74-1.11a34.49,34.49,0,0,0,4-1.48l.09-.18h.28l1.11-.55.74-.74,1.57-.83.37-.09h.18l2.86-1.94.28-.28.18-.09c.74-.55,1.48-1.2,2.21-1.85l.28-.37.18-.28.55-.46.55-.65.28-.46.37-.09.18-.37.28-.28.18-.28h.18A14,14,0,0,0,361.66,166.93Zm3.6-10.06c-.65-.37-1.85.09-2.77.46Z"/><path class="cls-1" d="M253.76,267.15c1.2-.55,2.4-1.2,3.6-1.85l.09-.09,4.8-2.68.46-.46.74-.46.18-.19,1.2-.83.46-.09.28-.28,1.94-1.11H268l.37-.28.28-.09.37-.37.55-.37.18.09.46-.46.65-.37.37-.37.65-.46,1-.37.83-.46c.65-.37,1.29-.83,1.94-1.29a.34.34,0,0,1,.28-.09l.28-.37h.28l.28.09.28.37-.09.37-.37.28-.37.09-.28.18-.18.18h-.18c-1.75,1.2-3.69,2.22-5.54,3.32l-.65.65-.92.37-.65.37a5.21,5.21,0,0,0-1.2.74c-.65.37-1.2,1.38-1.85,1.75l-2.21,1.11-.65.46-.55.28-1.2.74-.18.18-.28.19-.83.46-1.29.83-.46.37-1.2.46-.65.46-.28.18-1.85,1.29-.55.74-.37.19-.74.74-.09.55-.28.19-.74-.09-.55.28-1.66.37-1.75.37-.09-.09-1.2.65h-.46l-.18.18-2.12,1H242l-.37.19h-.46l-.28.28-.37.18h-.09l-.37.09-.28-.09h-.28l-.28-.18-.37-.19-1.38-.46-.37-.09-.46-.83a5.51,5.51,0,0,1-.92-2.12,5.87,5.87,0,0,1,.46-3h-.28v-.09H236l.19-.28.09-.37.28-.74.83-1.38.55-2.12.55-.92.46-.28.65-.83.46-.83.65-1.48h.19l.37-.28.09-.28.28-.55.28-.09,1.38-2,.28-.46.83-1.2.46-.92,1.57-2.22.19-.46,3.69-5.08.46-.83.55-.65v-.28l.92-1.29.37-.46.18-.37,1.48-2,.46-.28.28-.55.19-.09.28-.37.09-.19.37-.55.09-.09.28-.37.18-.37.55-.55v-.09l.09-.55.55-.74.74-.65.46-.55,1.57-2.22v-.09l.28-.37.28-.83.28-.19h.28a13.1,13.1,0,0,1,1-1.38L263,228l.46-.83.55-.65.37-.37.37-.55.37-.28c.09-.09.09-.18.19-.18v-.28l.37-.46L266,224v-.37l.37-.37V223l1.38-1.94.28-.28.18-.46.83-1.2.18-.09.55-.74.46-.46,3.14-4.52.46-.37,1.29-2,.65-.55.74-1.11.37-.37,1.11-1.75.18-.28v-.09l.37-.28.09-.19.19-.46.18-.28-.37.28-.09-.18v-.09l.28-.46.46-.09v.37l.37-.65.65-.65.46-.65.09-.37.65-.83,1.75-1.11.83-1.2.65-.37.19-.18.18-.28V199h.09l.18.09.37-.09.37-.37.65-.46.46-.28.19-.37-.09-.18h.28l.09.18.46-.28.28.09.09-.09c.18-.09.18-.28.37-.18h.18l.09-.28v-.28h.28v.09l.46-.09.55.09.37.55.46.92-.74,1.66-1.2,1-1.38.92-.37.55-1.94.65-.46.28-.65,1-1.29,1.11-.18.28-1.48,1.48-2.12,3.14-.92.74-.55.92-1.2,1.29v.09l-1.2,1.66-.65.55L273,218.23l-1.2,1.2-1.48,2L268.52,224l-.74.65L264,230.23l-.65.92-.65,1.11-.92.92-1,1.2-2.68,3.41-.09.55-.83,1.29-.28.09v.37l-.65.28-.09.65-.37.37-.37.28h-.09l-1.75,2.58-.92,1.29-.18.65-.09.92-.28.37-.74.92-.46.18-.19.83-.74.74L249,251l-.83,1.48-.46.28-.83,1.2v.19l-.74,1.11-1.11,1.57a.09.09,0,0,1-.09.09l-1,1.75c-.09.09-.18.18-.18.28l-.46,1-.65,1.2-.46.46-2.31,4.34-.09,1-.19.46-.65,1.29-.37.37-.18.37-.09,1.29.18.55.37.37.19.28.28.09.83.46h.74l1.29-.37.37-.28.83-.18.28-.19,1-.46,1.75-.65.28-.18.92-.28.55-.37,1.29-.55.83-.46,1.75-.92,1.57-.46Z"/><path class="cls-1" d="M273.14,259.95v.46l-.46.46-.28.37c-.09,0-.09.09-.09.18v.28l-.37.55-.09,2.31a2.72,2.72,0,0,0,.18,1.85c.55.65.28.65,2.58,1.38l1.57.37h1.2l1.38-.18,6.74-1.48,1.29-.55,3.6-1.2.74-.46.37-.18h.18l5.54-2.31h.37l.65-.37.83-.18,3-1.11.37-.09c3.32-1.38,4.62-2.21,7.85-3.69l2-.74.09-.18.55-.28,1.66-.55,1.75-.74v-.18h.28l1.11-.55.09-.18,5-3,.46-.09a20,20,0,0,0,2-1.38.35.35,0,0,1,.55.09v-.09l.37-.28.37.09.28.83-.46.18-.83.28-.46.18-2.12,1.48-.46.65h-.46l-.37.18c-.83.55-1.75,1-2.58,1.48l-.09.09-.65.37-.37.28h-.28l-3,1.48-.09.19-.37.09-.74.37-.18.09-1.29.83-3.51,1.48c-1.11.55-2.22,1.2-3.32,1.66l-.28.28-4.62,2.21-.37.28-.18-.28-1,.65-1.11.19-.74.37H297c-1.2.55-2.4,1-3.6,1.48l-1.38.74-2.86,1.38-.74.18-1.11.19-1.57.46-.92.09-.37.19-.37.28-1.2.28h-.18a21.76,21.76,0,0,1-3.69.83l-.28.28-.46.09h.09l-1.85.37-.55-.19-1,.37-2.21-.37-2-1-.92-1.29-.46-1.2-.28-1.29v-1.57l.09-.18L269,264v-.65l.65-2.31.65-1.11.74-1.66.55-.92.18-.18.28-.74.55-.46.28-.65.55-.83.28-.28,1-.46.37-.46.65-.28.74-.55.18-.09.92-.83.83-.65L279,250l.37-.37.46-.55.37-.28.55-.18.18-.28.46-.46.74-.28.46-.18a77.05,77.05,0,0,1,6.37-4.34l.18-.18.92-.65,1.2-.46c.09,0,.18,0,.18-.09l1.11-.74.65-.37.28-.09,1.29-.19c1-.37,2-.74,3-1l.83-.46h.92l.55-.18.28.18a15.74,15.74,0,0,1,2.12.09l.09-.09.28-.09.18.09.28-.09.09-.09.55.18v-.09h.09l-.09.18.28.19h.28l.09.18h.09l.55.28.09.09c.46.37.83.65.92,1.11l.28.09-.09.18h.09l-.09.09v.46l.09.37-.19.65-.18.28v.55l-.37,1.38-.74,1.2-.92.92-1,.65-.83.55-3.23,1.66-.46.37-.65.18a61.35,61.35,0,0,1-6.74,4l-.09.18-2.68,1.29-1.2.83-2.4,1-1.75.65-2.49.46-1.48.09h-.65l-.55-.28-.19-.46.19-.28.65-1.29,1.29-1.2,1.2-.46h.74l.65.18.74.18h1.2l1.11-.18,1.2-.46h.37l.19-.28,2.68-.92,2.49-1.2,1.2-.65.46-.55,1.2-.46.19-.37,1.38-.46.37-.37,1.2-.92,4.15-3.51.37-.46.18-.65.19-.28.46-1.38-.09-.09-.09-.18-.18-.46-.46-.55-.65-.28-.65-.18h-1l-.65.09-.37-.09a34.08,34.08,0,0,0-6.74,2.68l-1.11.55-.28.28-.46.37-.37-.09c-.09.09-.09.09-.18.09v.19l-.55.18-.18.19h-.19l-2,1.11-1,.83-.65.65-.92.28-.37.18c-.83.55-1.57,1.2-2.4,1.85l-.46.55-1.2,1.11L280,252l-1,.92-1.29,1.29-1.29,1.48-.28.28-.55.83-.65.92-.92.92Z"/><path class="cls-1" d="M368.21,263.73l-4.15,2.58-.18.18-.92.65-1,.37-.55.28-.92.74-.55.37-.83.28-.55.09c-.92.46-1.85.92-2.77,1.29l-1.48.74h-.19l-.74.28h-.55a.55.55,0,0,0-.37.09l-.09.09-.18-.09a8.89,8.89,0,0,1-2,.28l-.37.18-.37-.09-.83-.46a19.3,19.3,0,0,1-3.69-1.48,1.62,1.62,0,0,1-.55-1.38v-.18h-.18l-.18-.18h.18l.18-.28v-1.2l.65-1.48v-2.21l.46-1.11.37-.28.46-1.11.37-.74.28-.83.19-.46.09-.18V258l.46-.28.09-.18v-.37l.37-.37,1.48-2.77,1-1.57.18-.28v-.09h.09a5.67,5.67,0,0,1,.65-1.29v-.55l.46-.46.09-.74.18-.65.19-.28.74-.65.18-.46.37-.28c.46-.83.92-1.66,1.48-2.49v-.09l.19-.65.28-.37.18-.18.19-.55.18-.37.37-.37v-.09l.09-.19h.09l.28-.28c.65-1.11,1.38-2.22,2.12-3.32l.09-.28.18-.09.28-.46.18-.65.18-.37.55-.46h.09l2.86-4.34.09-.19,1.38-2.12.92-1.48,2.4-3.88.92-1.11.28-.46.28-.92.19-.46L371,220l.28-.09.28-.18.83-1.2.37-.55.19-.37.65-.65v-.09l.55-1,.46-.46h-1.85l-.37.55-.55.55-.74.55-2.4,2.49-.09.09-.28.18-2.4,2.49v.09h-.09l-2,2.12-5.08,5.08-.28.46-.55.65-.92.74-1,1.11-.83.74-.37.65-1.11.83-1.75,1.75-.18.37-.74.65-.09.46L347,242l-.09.28-.28.18-1,.55v.09l-.46.28c-.18.18-.37.28-.46.46-4.71,4.89-9.32,9.88-14.12,14.68-1,.92-1.85,1.85-2.58,2.58l-.28.65-.55.92-1.11.92-.83,1.2-1.11,1.11-.92.65-1,1-.55.28a16.67,16.67,0,0,1-2.68,2.58v.18l-.28.09h-.09l-1.2.55-.74.74-.37.28-1.66.28-.55-.09-.46.37-.65.28-.37.09-.18.28v.18h-.19v-.18h-.46l-.37-.09-.46-.55-.09-.92.09-.18v-.55l.46-1.11,1-3.32.28-.74.46-.74.28-.83,1.11-2.4.09-.28v-.37L315,261l2-3.78.37-.92.28-.28.18-.37,2.77-4.89.83-1.66.19-.09c.09-.09.18-.18.18-.28l.09-.37.74-1.29.28-.18a.29.29,0,0,0,.09-.18l.37-.83.37-.37,1-1.75,2.22-3.88.37-.46,1.29-2.31.46-.65.83-1.48.37-.28,1.2-2.22v-.28l.09-.09.18-.28.28-.28.92-1.94.65-.65.46-.83.09-.18v-.46l.55-.83,1.57-1.48.83-1.11.09-.19.55-.92.37-.83.37-.65.74-.92.46-.74.37-.55.37-.28v-.46l.28-.37.09-.37v-.09h-.46c-.92.09-1.2.09-1.11.09-2.31.37-4.52.74-6.74,1l-.28.28-.65.28-.37.09-1-.09-.37.18h-1.38l-.28.09-1.85.37-.92.37-.28.09-.65.18-.37.09-.37.46h-.28l-.65-.28-.65-.09-1-.19c-1.29.37-2.68.65-3.69.09a1,1,0,0,1-.37-.83l.19-.28-.09-.09-.18-.65.65-.65-.19-.09.19-.09.18.09h.37l.46-.28.83-.28,1.38-.09H321l.83-.18,2.12-.83,1.38-.19.46.19.83-.09h3l-.18-.09L330,216h.74l.18.09v.09l4.8-.18h.46l.74.09.46-.09,3.23-.28.46.09h.09l1.2-.09.09-.09.83-1.66.28-.19.28-.74.65-.46,2.86-4.62.28-.46,1.29-1.85.55-.74.65-1.2.37-.18,1.2-1.75v-.46l.28-.28.28-.18v-.37l.19-.37-.19.28-.28-.28.37-.37.37-.09.09.09.37-.46.46-.74.65-.83v-.18l.46-.92,1.29-.83.46-.65.09-1.2.09-.55.83-1.2,1.11-.92.74.09.55.28.09.46v.46h.18l.09.18H360l-.09.28-.18.37-.09.37.28.46-.37,1.48-.92,1-.37.37-.09.37-.65.83-.46.28-.46.74-.55.83-.46.65.37-.09v.46l-.37.46h-.28l.18-.46-.28.28-.37.28-.18.28-.09.37-.18.19-.18.09-1.38,1.85-.28.55-.92,1-.37.83L349.57,209l-.09.55-3.69,4.71-.46.65-.28.55,3.78-.37L349,215l.65-.09.55-.28.74-.18h.37l.92.18.46-.09.55.09.28.09,3.51-.28h.55l.55-.09h.37l.37-.46h.28l.55.46a26,26,0,0,0,2.68-.19l1.29-.28.92-.18.74.09.92.19,4.89-.19,1.75-1.66.83-1,.09-.65.92-.46.18-.46,2-2.12.46-.83.92-.92,1.11-1,2.31-2.58,1.29-1.66.83-1.38.65-1-.09-.28.28-.37v-.28l-.09-.18.37-.74h-.09L385,196l.28.09.28-.37.19-.28.18-.09.09-.09.65-.74.83-.55.46-.37.37-.09-.09.18.92-.55V193l.74-.09.55-.09.55.28.18.55c.46.09.65.55.37,1.11l-.18.18h.09v.28l-.09-.09-.37.37-.28.74-.83,1-1,1.75-.65.46-.28.28-.74.55-.46.65-.37.46h.18l-.09.55-.37.28H386l-.09-.09a25.23,25.23,0,0,1-2.12,3l-3.14,4.25-1.29,1.94-.74.74-.46.65-.46.92c.74,0,1.48.09,2.31.09l.18-.09,1.11-.09,1,.28H383l1.2-.18.65.09.92.09.46.18q3.88.14,7.75.55c.18,0,.37.09.55.09l.46-.09.92.18a1.58,1.58,0,0,0,.65.09l1.29-.09h.65l.92.18,1.11.28.65.19h.74l1.11.37,2.77.55.37-.09h.37l.18.28,1.75.37h.09l.37.09c1.85.46,3.78,1,5.72,1.38l.55.09,1.2.28a3.27,3.27,0,0,0,.92.19,1.1,1.1,0,0,1,.46.18l.65.19.65.09h.18l.09.28-.18.37h-.55l-.18-.19H418v-.09l-.19.09-1-.28-.28-.09-2.4-.65-.92-.09h-.92l-.74-.18-.65-.18-1.75-.55h-.55l-1.29-.28h-.65l-1.2-.19h-.28l-.46-.18-.37-.09h-.18l-1.85-.28c-2.49-.28-4.89-.65-7.48-.83h-1.38l-.28.09h-.83l-.18-.09H392l-.74-.28h-.83l-.37-.09h-2.68l-.37.09-1-.18-1.2.09-.65-.09-2.58-.09-.65-.09h-1.57l-.65.18-.37-.18h-.09l-.19.09h-.55l-.28.09-.28-.18h-.55l-1.66,2.31-.09.18-.37.37-2.58,3.6-.09.46-.28.18-3.51,5.17-.19.18-.46.55-.28.65-.37.37-2.77,4.25-.09.09.09.28-.28.18-.28.46h-.09l-.37.74-.92,1.2-.55.83v.37l-1.57,2a.32.32,0,0,1-.09.18l-.28.74v.18l-.09.18-.19.18-.46.65h-.18c0,.09,0,.09-.09.18l-.37,1-.74,1.2-.28.46v.46l-2.4,3.51.18.28h-.46l-.46,1-.09.28L352,253l-1.29,2.49a51.52,51.52,0,0,0-3.32,7.75h.09l.18.18v.09h-.18l-.46,2.31-.09,1.75v.46l.46,1.29c.74.92,2.12,1.2,4.15.92l.65-.18.74-.09H353a1.34,1.34,0,0,1,.65-.18,38.78,38.78,0,0,0,4.89-1.94l1.85-.92.74-.74.74-.28.74-.55.74-.28.46-.28h.09c2.86-1.85,5.54-3.79,8.4-5.63l1.29-.83,1.11-.83v-.18h.18l.92-.74.28-.19,4.43-3.41.55-.19,1-.74.92-.74.18-.28.28-.37.46.09.28.65-.28.46-.46.18c-.92.74-1.85,1.48-2.77,2.12l-.18.19-.28.09-2.58,1.94-.37.37-.65.46-.18.28-.37.18-.46.37c-1.48,1.29-3,2.58-4.8,3.88l-.18.37-1.29.83-.09.28-.74.28Zm-45.32-14.21-.46.74-1.2,2.21-.09.28-.18.09-.46.92-.09.09a94.44,94.44,0,0,0-6.92,15.69l1-.28h1.11v-.18h.28v.18h.28l.37-.28.37-.37,1-.65.92-.92,1.48-1.38,2.21-2.21.92-.55.55-.74,2.68-2.31,2.49-2.4,1-.92,1.66-1.57.65-.55,1.38-1.29.65-.46,2-1.94L337,250l.65-1,1-.55,1.2-.92,2.49-2.58.18-.37,1.11-1h.09l.18-.18v-.19l.37-.28.65-.65H345l.28-.28.09-.28.46-.46.92-.83.09-.18.55-.83.65-.55.46-.65.83-.83.28-.37,1.11-.92,1.11-1.11,2.68-2.86.65-.55,2.12-2.4.19-.28h.09l.37-.37.83-1,.18-.09.46-.46.19-.46.28-.09.28-.28.65-.83,1.38-1.48.37-.37.37-.28,1-1.11.09-.37.28-.18.37-.28.28-.46h.09l.09-.18v-.18l.19-.65,2.68-2.58.37-.65.19.28.65-1,.18-.18c-.46,0-.92.09-1.38.09l-4.15.65-.74.19-.83-.37-.83-.09-2.31.18-.09.09-.92.09-1.29.28-.92.19h-.74l-1.2-.19-1.57.09h-.65l-3.51.28-.46.46-1.57.18-.74.18-.92.28-.55.28-.74.55-.83.09-.65.92-.37.09-.28.37-.37.28-.28.55-.37.55h-.09l-.37.37v.09c-.09,0-.09.09-.09.18l-.46.65-.28.46v.09l-.19.28-.09.18-.37.83-.83,1.11-.55,1.11-.55.55-.18.28.18.18H336l-.74,1.11-.09.09v.18l-.09.28L335,230l-.18.09L333.6,232v.09l-.18.28-.83,1.38-1.11,1.75-.09.46-2.58,4.15-.28.55-.46.74v.19l-.74,1L327,243l-.09.28-1.11,1.85-.18.09-.28.46-.18.09-.18.46-.28.46-.09.09-.74,1.48-.46.65Zm51.32-35.81h1.48l.92-1.38.28-.55,1.11-1.48a1.92,1.92,0,0,1,.37-.55v-.19h.09l.55-.83-.28.18-1.57,1.66L375.87,212Z"/><path class="cls-1" d="M377.91,259.95v.46l-.46.46-.28.37c-.09,0-.09.09-.09.18v.28l-.37.55-.09,2.31a2.72,2.72,0,0,0,.18,1.85c.55.65.28.65,2.58,1.38l1.57.37h1.2l1.38-.18,6.74-1.48,1.29-.55,3.6-1.2.74-.46.37-.18h.18l5.54-2.31h.37l.65-.37.83-.18,3-1.11.37-.09c3.32-1.38,4.62-2.21,7.85-3.69l2-.74.09-.18.55-.28,1.66-.55,1.75-.74v-.18h.28l1.11-.55.09-.18,5-3,.46-.09a20,20,0,0,0,2-1.38.35.35,0,0,1,.55.09v-.09l.37-.28.37.09.28.83-.46.18-.83.28-.46.18-2.12,1.48-.46.65h-.46l-.37.18c-.83.55-1.75,1-2.58,1.48l-.09.09-.65.37-.37.28h-.28l-3,1.48-.09.19-.37.09-.74.37-.18.09-1.29.83-3.51,1.48c-1.11.55-2.22,1.2-3.32,1.66l-.28.28-4.62,2.21-.37.28-.18-.28-1,.65-1.11.19-.74.37h-.09c-1.2.55-2.4,1-3.6,1.48l-1.38.74-2.86,1.38-.74.18-1.11.19-1.57.46-.92.09-.37.19-.37.28-1.2.28h-.18a21.76,21.76,0,0,1-3.69.83l-.28.28-.46.09h.09l-1.85.37-.55-.19-1,.37-2.21-.37-2-1-.92-1.29-.46-1.2-.28-1.29v-1.57l.09-.18-.09-.18v-.65l.65-2.31.65-1.11.74-1.66.55-.92.18-.18.28-.74.55-.46.28-.65.55-.83.28-.28,1-.46.37-.46.65-.28.74-.55.18-.09.92-.83.83-.65.65-.92.37-.37.46-.55.37-.28.55-.18.18-.28.46-.46.74-.28.46-.18a77.05,77.05,0,0,1,6.37-4.34l.18-.18.92-.65,1.2-.46c.09,0,.18,0,.18-.09l1.11-.74.65-.37.28-.09,1.29-.19c1-.37,2-.74,3-1l.83-.46h.92l.55-.18.28.18a15.74,15.74,0,0,1,2.12.09l.09-.09.28-.09.18.09.28-.09.09-.09.55.18v-.09h.09l-.09.18.28.19h.28l.09.18h.09l.55.28.09.09c.46.37.83.65.92,1.11l.28.09-.09.18h.09l-.09.09v.46l.09.37-.19.65-.18.28v.55l-.37,1.38-.74,1.2-.92.92-1,.65-.83.55-3.23,1.66-.46.37-.65.18a61.35,61.35,0,0,1-6.74,4l-.09.18-2.68,1.29-1.2.83-2.4,1-1.75.65-2.49.46-1.48.09h-.65l-.55-.28-.19-.46.19-.28.65-1.29,1.29-1.2,1.2-.46h.74l.65.18.74.18h1.2l1.11-.18,1.2-.46h.37l.19-.28,2.68-.92,2.49-1.2,1.2-.65L399,251l1.2-.46.19-.37,1.38-.46.37-.37,1.2-.92,4.15-3.51.37-.46.18-.65.19-.28.46-1.38-.09-.09-.09-.18-.18-.46-.46-.55-.65-.28-.65-.18h-1l-.65.09-.37-.09a34.08,34.08,0,0,0-6.74,2.68l-1.11.55-.28.28-.46.37-.37-.09c-.09.09-.09.09-.18.09v.19l-.55.18-.18.19h-.19l-2,1.11-1,.83-.65.65-.92.28-.37.18c-.83.55-1.57,1.2-2.4,1.85l-.46.55-1.2,1.11-.65.65-1,.92-1.29,1.29-1.29,1.48-.28.28-.55.83-.65.92-.92.92Z"/><path class="cls-1" d="M423.87,260.13l-.18.37.74-.65,1.29-.92.37-.28.18-.09h.19v-.09l.74-.28-.37-.37h.55l1.66-1.57h.28l1.48-1.48,1.66-1,1.57-1.2.18-.18h.09l1.75-1.38.09-.09,2.58-1.85v.09L440.4,248l.46-.46.37-.09.83-.55.19-.19h.09l1.85-1.11.74-.74.55-.37,1.38-.55,1-.92,1-.55,1.94-.65.83-.37a32.3,32.3,0,0,1,3-1.48l.55-.46,1.66-.65,1.66-.55.28-.19.83-.46,1-.37.65-.28,1.2-.09a12.52,12.52,0,0,1,4.25-.65l.55-.18.37.37a3.32,3.32,0,0,1,1.11.74.48.48,0,0,1,.19.37l.65.74-.18,2.4L468.36,243l-1.11.37h-1l-.55-.65v-.92l-.46.37v-.46l.18-.09.09-.46-.09-.65-.18-1.2-.37-.46-1.38.18-1.29.55-.46.09-.74-.09-1,.46-.55.09-3.69.74c-1.75.74-3.23,1.48-3.78,1.75l-.55.28-.46.46-3.69,1.94-1.38.83-.55.55-1.75.92-.46.28-.83.65-1.38.92-.55.65-2.68,1.75-4,3.32-.55.83-.65.46-1.2,1.29-1.11,1-.37.18-.74.46-.65.65-.09.19-.74.65-.83.92-.46.46-.37.28-.92.92-.37.65-.37.28-.37.46-.92.83-1.57,1.57-.46.74-.37.46-.46.83-.18.55-.09.18-.18.46-.55.55-1.48,1.11-.92.65-.83-.18-.46-.65v-.09a1.07,1.07,0,0,1-.19-.92v-.37l.19-.19.28-1.11-.19.19-.09-.37.28-.65.37-1.11.65-.92.09-.18V266l.37-.28.28-.46v-.18l.83-.65h.18l.28-.19,1.11-1.57.65-.92.28-.09.46-.92.55-1.38.65-.55.18-.55,1-1.29.28-.19,1.2-1.85v-.37l1.57-1.94.92-1.57.37-.55.46-.83.09-.28.18-.19.65-.92V248l.55-.92.55-.09.28.18.55-.65.28-.65.09-.46v-.28l-.37-.19.28-.28-.09.18.28-.37-.09-.09-.37.46c-.46.46-.83,0-.83-.46l.18-.19v-.18l.09-.28.28-.46.09-.19-.19-.28-.09.09-.46-.19v-.28l.18-.18.37-.09h-.18l.18-.09h-.18l-.09-.37.37-.55.46.28.28-.46v-.37l.09-.28-.19-.09.46-.09v-.46l.18-.09h.18l.37-.37h.46l.65.09.46.09.37-.19v-.18l.37-.28.37.09h.28l.18.19-.09.09-.46.18a1.71,1.71,0,0,1,1.2,1.2l.09.09-.09.28c0,1.11-.92,2.4-1.94,3.6l.09.18-1,1.29-.55.09-.83.92-.37.46-.28.65h-.09a15.16,15.16,0,0,1-1.48,1.94c0,.09-.09,0-.09,0l-.55.83-.18.55-.37.65-.83,1.38-.55.65-.19.37-.55.92-1.11,1.75-.65,1.38-.55.92-.46.46Z"/><rect class="cls-2" x="52.5" y="50.5" width="496" height="299"/><polyline class="cls-2" points="122.5 94.5 122.5 31.5 185.5 31.5"/><polyline class="cls-2" points="479.5 305.5 479.5 368.5 416.5 368.5"/></svg>